<?xml version="1.0" encoding="utf-8"?>
<!-- Generator: Adobe Illustrator 19.1.0, SVG Export Plug-In . SVG Version: 6.00 Build 0)  -->
<!DOCTYPE svg PUBLIC "-//W3C//DTD SVG 1.1//EN" "http://www.w3.org/Graphics/SVG/1.1/DTD/svg11.dtd">
<svg version="1.1" id="assets" xmlns="http://www.w3.org/2000/svg" xmlns:xlink="http://www.w3.org/1999/xlink" x="0px" y="0px"
	 viewBox="0 0 132 26" style="enable-background:new 0 0 132 26;" xml:space="preserve">
<g id="tableau_x5F_mono_x5F_logo_1_" style="opacity:0.85;">
	<path style="fill-rule:evenodd;clip-rule:evenodd;fill:#FFFFFF;" d="M69.9,11c0.9-0.3,1.6-0.4,2.1-0.4c2.4,0,4.1,1.7,4.1,4.4
		c0,2.8-1.7,4.4-4.8,4.4c-1.1,0-2.1-0.2-3.2-0.6L68.1,6.5h1.8V11z M71.5,17.6c1.7,0,2.7-1,2.7-2.7c0-1.7-1-2.7-2.5-2.7
		c-0.7,0-1.3,0.2-1.8,0.4v4.7C70.4,17.5,71,17.6,71.5,17.6z"/>
	<rect x="83.6" y="4.7" style="fill-rule:evenodd;clip-rule:evenodd;fill:#FFFFFF;" width="1.8" height="16.1"/>
	<path style="fill-rule:evenodd;clip-rule:evenodd;fill:#FFFFFF;" d="M95.3,14h4.1c0-1.1-0.6-1.7-1.7-1.7
		C96.7,12.2,95.7,12.8,95.3,14z M97.4,19.3c-2.8-0.3-4.1-2.2-4-4.5c0.1-2.5,1.7-4.3,4.2-4.3c2.6,0,4.1,1.9,3.9,4.7l-6.2,0
		c0.1,1.6,1.1,2.3,2.4,2.4c1.1,0.1,2.6-0.2,3.4-0.7v1.7C99.9,19.2,98.8,19.5,97.4,19.3z"/>
	<path style="fill-rule:evenodd;clip-rule:evenodd;fill:#FFFFFF;" d="M128.1,17.9c1.1,0,1.9-0.6,1.9-1.9v-5.3h1.8v5.5
		c0,1.9-1.4,3-3.7,3c-2.3,0-3.7-1.1-3.7-3v-5.5h1.8V16C126.2,17.3,126.9,17.9,128.1,17.9z"/>
	<path style="fill-rule:evenodd;clip-rule:evenodd;fill:#FFFFFF;" d="M56.1,19.3c-3,0-4.8-1.6-4.8-4.4c0-2.7,1.6-4.4,4.1-4.4
		c0.8,0,1.5,0.2,2.1,0.6v-0.6h1.8l-0.1,8.2C58.5,19.1,57.3,19.3,56.1,19.3z M55.9,17.6c0.4,0,0.9,0,1.6-0.2l0-4.6
		c-0.6-0.4-1.1-0.6-1.8-0.6c-1.5,0-2.5,1-2.5,2.7C53.3,16.7,54.2,17.7,55.9,17.6z"/>
	<path style="fill-rule:evenodd;clip-rule:evenodd;fill:#FFFFFF;" d="M113.5,19.3c-3,0-4.8-1.6-4.8-4.4c0-2.7,1.6-4.4,4.1-4.4
		c0.8,0,1.5,0.2,2.1,0.6v-0.6h1.8l-0.1,8.2C115.9,19.1,114.6,19.3,113.5,19.3z M113.3,17.6c0.4,0,0.9,0,1.6-0.2l0-4.6
		c-0.6-0.4-1.1-0.6-1.8-0.6c-1.5,0-2.5,1-2.5,2.7C110.6,16.7,111.6,17.6,113.3,17.6z"/>
	<polygon style="fill:#FFFFFF;" points="37.8,7.1 39.6,7.1 39.6,12.2 44.5,12.2 44.5,13.8 39.6,13.8 39.6,19.4 37.8,19.4 37.8,13.8 
		33,13.8 33,12.2 37.8,12.2 	"/>
	<g>
		<polygon style="fill:#FFFFFF;" points="18.4,12.3 14.8,12.3 14.8,8.4 13.3,8.4 13.3,12.3 9.7,12.3 9.7,13.7 13.3,13.7 13.3,17.6 
			14.8,17.6 14.8,13.7 18.4,13.7 		"/>
		<polygon style="fill:#FFFFFF;" points="24.8,6.1 21.5,6.1 21.5,2.6 20.3,2.6 20.3,6.1 17.1,6.1 17.1,7.2 20.3,7.2 20.3,10.7 
			21.5,10.7 21.5,7.2 24.8,7.2 		"/>
		<polygon style="fill-rule:evenodd;clip-rule:evenodd;fill:#FFFFFF;" points="24.8,18.9 21.5,18.9 21.5,15.4 20.3,15.4 20.3,18.9 
			17.1,18.9 17.1,20 20.3,20 20.3,23.5 21.5,23.5 21.5,20 24.8,20 		"/>
		<polygon style="fill:#FFFFFF;" points="10.9,6 7.7,6 7.7,2.5 6.5,2.5 6.5,6 3.3,6 3.3,7.1 6.5,7.1 6.5,10.6 7.7,10.6 7.7,7.1 
			10.9,7.1 		"/>
		<polygon style="fill:#FFFFFF;" points="0.8,12.5 3,12.5 3,10.1 4.1,10.1 4.1,12.5 6.3,12.5 6.3,13.5 4.1,13.5 4.1,15.9 3,15.9 
			3,13.5 0.8,13.5 		"/>
		<polygon style="fill-rule:evenodd;clip-rule:evenodd;fill:#FFFFFF;" points="3.3,18.9 6.5,18.9 6.5,15.4 7.7,15.4 7.7,18.9 
			10.9,18.9 10.9,20 7.7,20 7.7,23.5 6.5,23.5 6.5,20 3.3,20 		"/>
		<polygon style="fill:#FFFFFF;" points="11.3,2.6 13.5,2.6 13.5,0.1 14.5,0.1 14.5,2.6 16.7,2.6 16.7,3.5 14.5,3.5 14.5,5.9 
			13.5,5.9 13.5,3.5 11.3,3.5 		"/>
		<polygon style="fill:#FFFFFF;" points="11.3,22.5 13.5,22.5 13.5,20.1 14.5,20.1 14.5,22.5 16.7,22.5 16.7,23.4 14.5,23.4 
			14.5,25.9 13.5,25.9 13.5,23.4 11.3,23.4 		"/>
		<polygon style="fill:#FFFFFF;" points="21.8,12.6 24,12.6 24,10.1 25,10.1 25,12.6 27.2,12.6 27.2,13.5 25,13.5 25,15.9 24,15.9 
			24,13.5 21.8,13.5 		"/>
	</g>
</g>
</svg>
